<?xml version="1.0" standalone="no"?>
<!DOCTYPE svg PUBLIC "-//W3C//DTD SVG 20010904//EN"
 "http://www.w3.org/TR/2001/REC-SVG-20010904/DTD/svg10.dtd">
<svg version="1.0" xmlns="http://www.w3.org/2000/svg"
 width="1658.000000pt" height="1658.000000pt" viewBox="0 0 1658.000000 1658.000000"
 preserveAspectRatio="xMidYMid meet">
<metadata>
Created by potrace 1.14, written by Peter Selinger 2001-2017
</metadata>
<g transform="translate(0.000000,1658.000000) scale(0.100000,-0.100000)"
fill="#000000" stroke="none">
<path d="M2047 13764 c-1 -1 -42 -5 -92 -8 -444 -31 -822 -194 -1089 -470 -75
-77 -191 -231 -232 -306 -10 -19 -22 -37 -25 -40 -11 -9 -126 -251 -159 -335
-60 -150 -170 -487 -195 -595 -2 -8 -12 -51 -23 -95 -11 -44 -28 -116 -36
-160 -9 -44 -18 -91 -21 -105 -3 -14 -10 -56 -16 -95 -6 -38 -12 -79 -14 -91
-2 -11 -6 -52 -10 -90 -4 -38 -9 -80 -12 -94 -2 -14 -7 -141 -9 -283 -6 -290
-4 -302 61 -351 73 -56 223 -105 370 -121 74 -8 264 -8 342 0 189 20 375 95
414 166 7 15 12 107 14 273 2 138 6 260 8 271 3 11 8 55 11 97 4 42 8 85 10
95 2 10 7 41 10 68 11 73 17 115 22 139 2 11 11 55 19 98 44 231 158 612 234
783 10 22 31 69 47 105 66 152 194 367 269 455 46 54 126 135 133 135 9 0 52
-70 85 -135 41 -84 71 -196 102 -380 27 -168 28 -1505 0 -1955 -3 -41 -7 -120
-10 -175 -13 -246 -17 -305 -30 -480 -18 -230 -25 -315 -30 -345 -2 -14 -7
-63 -10 -110 -4 -47 -8 -98 -10 -113 -2 -15 -6 -60 -10 -100 -4 -40 -8 -79
-10 -87 -1 -8 -6 -46 -9 -85 -4 -38 -9 -77 -11 -85 -2 -8 -6 -46 -10 -85 -3
-38 -8 -77 -10 -85 -2 -8 -6 -42 -10 -75 -3 -33 -8 -73 -10 -90 -10 -71 -27
-192 -31 -215 -2 -14 -11 -77 -19 -140 -9 -63 -20 -137 -25 -165 -5 -27 -11
-66 -14 -85 -3 -19 -17 -105 -31 -190 -22 -131 -38 -220 -79 -445 -3 -17 -8
-43 -11 -60 -27 -147 -78 -388 -132 -630 -35 -159 -66 -299 -69 -310 -2 -11
-38 -154 -79 -318 -41 -164 -75 -309 -75 -322 0 -25 58 -83 111 -111 122 -63
270 -89 509 -89 166 0 204 4 315 34 177 48 227 84 274 198 62 148 163 388 176
418 7 17 49 113 93 215 100 230 186 425 287 645 69 151 219 473 261 560 27 55
49 102 49 105 4 19 536 1087 648 1300 31 58 66 125 78 150 13 25 70 133 127
240 57 107 129 242 160 300 30 58 64 119 74 135 l19 30 -5 -35 c-3 -19 -8 -57
-11 -85 -4 -27 -8 -61 -10 -75 -4 -22 -26 -199 -40 -315 -3 -22 -8 -56 -10
-75 -3 -19 -7 -55 -10 -80 -3 -25 -10 -79 -15 -120 -9 -70 -16 -135 -24 -220
-2 -19 -9 -71 -14 -115 -6 -44 -14 -109 -17 -145 -3 -36 -8 -76 -10 -90 -6
-33 -14 -112 -20 -180 -2 -30 -7 -71 -9 -90 -3 -19 -8 -57 -11 -85 -3 -27 -7
-70 -10 -95 -3 -25 -7 -70 -10 -101 -2 -30 -6 -75 -9 -100 -3 -24 -8 -69 -11
-99 -3 -30 -7 -73 -10 -95 -2 -22 -7 -67 -10 -100 -3 -33 -8 -78 -10 -100 -4
-39 -10 -98 -20 -220 -3 -33 -7 -80 -10 -105 -3 -25 -7 -76 -11 -115 -3 -38
-7 -86 -9 -105 -2 -19 -6 -73 -10 -120 -4 -47 -8 -101 -10 -120 -2 -19 -6 -71
-9 -115 -4 -44 -9 -100 -11 -125 -3 -25 -7 -81 -10 -125 -4 -44 -8 -107 -11
-140 -3 -33 -7 -87 -9 -120 -2 -33 -7 -91 -10 -130 -3 -38 -7 -106 -10 -150
-3 -44 -7 -100 -10 -125 -2 -25 -7 -92 -10 -150 -3 -58 -8 -129 -10 -157 -3
-29 -7 -101 -10 -160 -4 -60 -8 -130 -9 -158 -2 -29 2 -61 10 -77 41 -79 220
-153 424 -174 125 -13 371 -4 439 16 17 5 31 7 31 5 0 -7 114 35 175 65 34 17
71 40 82 52 11 13 35 66 53 118 35 107 65 191 174 495 109 306 287 789 305
830 5 11 37 94 71 185 63 167 378 962 410 1035 10 22 77 184 151 360 73 176
147 352 164 390 17 39 39 88 48 110 20 49 273 624 317 720 17 39 45 102 63
140 40 92 43 94 41 32 -7 -168 -21 -641 -30 -1037 -11 -473 -7 -905 10 -1000
3 -14 7 -52 10 -85 3 -33 8 -69 10 -80 2 -11 7 -42 10 -70 24 -172 93 -424
169 -610 234 -578 626 -833 1262 -821 99 2 189 6 200 9 11 3 43 8 70 11 73 10
210 45 283 72 170 65 277 136 476 318 49 44 98 89 110 99 11 10 55 49 96 86
182 164 301 271 369 331 40 36 88 79 106 95 17 17 67 62 110 100 43 39 83 75
89 80 6 6 52 46 101 90 50 44 95 85 101 90 6 6 46 42 89 80 43 39 103 93 133
120 31 28 67 60 81 73 14 13 40 35 56 50 17 15 70 63 119 107 50 44 97 87 106
95 9 8 34 31 56 50 113 101 240 215 250 225 6 5 41 37 78 70 38 33 78 69 90
80 13 11 63 56 111 100 49 44 96 87 105 95 9 8 76 69 150 135 74 66 180 160
235 210 55 49 138 124 184 165 46 41 107 96 135 122 28 25 52 45 54 44 1 -2
-8 -34 -20 -72 -12 -38 -23 -73 -24 -79 -31 -125 -297 -795 -446 -1125 -171
-377 -386 -831 -508 -1071 -33 -67 -87 -144 -176 -256 -153 -189 -155 -193
-278 -353 -52 -69 -99 -129 -103 -135 -9 -10 -108 -145 -243 -328 -44 -59 -84
-116 -90 -126 -5 -11 -16 -25 -23 -33 -36 -37 -532 -770 -725 -1071 -226 -354
-353 -618 -395 -822 -44 -215 16 -500 120 -569 60 -39 218 -89 333 -104 70 -9
319 -9 385 1 28 3 61 8 75 10 97 14 200 51 262 94 43 29 157 178 320 418 112
165 328 501 328 511 0 2 12 23 27 47 14 23 57 96 95 162 38 66 73 127 78 135
16 26 113 205 217 400 104 194 189 361 543 1067 l380 758 92 110 c106 128 434
511 457 535 9 9 45 50 81 90 36 41 83 94 105 118 22 24 51 56 64 70 13 15 74
81 135 146 353 381 796 823 1166 1166 62 58 122 114 134 125 44 43 516 454
631 550 66 55 125 105 132 111 7 7 100 83 208 169 108 87 205 169 216 183 11
15 19 40 19 63 0 99 -148 177 -405 213 -97 13 -309 15 -370 3 -16 -4 -50 -9
-75 -11 -121 -14 -211 -49 -298 -118 -166 -131 -766 -629 -792 -658 -3 -3 -61
-55 -130 -115 -68 -61 -132 -117 -141 -125 -8 -8 -40 -37 -70 -64 -30 -27 -66
-61 -81 -74 l-27 -25 24 90 c44 159 78 321 91 428 3 28 8 61 11 75 9 47 11
405 1 470 -36 256 -71 319 -206 369 -142 53 -418 77 -622 55 -144 -16 -292
-74 -378 -148 -49 -43 -384 -343 -532 -476 -47 -42 -152 -137 -235 -211 -146
-130 -198 -177 -255 -229 -15 -14 -45 -40 -66 -59 -22 -19 -62 -55 -89 -80
-28 -25 -89 -80 -135 -121 -46 -41 -107 -95 -134 -120 -28 -25 -56 -49 -62
-55 -6 -5 -49 -44 -95 -86 -46 -42 -156 -140 -244 -219 -88 -79 -182 -164
-210 -189 -27 -25 -133 -120 -235 -211 -190 -169 -254 -227 -274 -246 -6 -5
-57 -52 -114 -103 -57 -50 -118 -105 -135 -121 -18 -16 -41 -37 -53 -47 -33
-28 -173 -155 -207 -186 -34 -32 -148 -134 -187 -167 -14 -12 -63 -56 -109
-98 -46 -42 -92 -84 -102 -93 -78 -68 -146 -128 -168 -150 -14 -14 -64 -59
-111 -100 -47 -40 -92 -81 -100 -89 -14 -14 -237 -214 -318 -286 -19 -16 -39
-29 -45 -29 -12 0 -81 130 -127 240 -60 146 -124 404 -145 585 -3 25 -7 54 -9
65 -4 21 -13 127 -22 255 -5 77 -5 673 1 790 2 60 10 311 20 685 2 82 7 237
10 345 3 107 7 272 10 365 3 94 7 262 10 375 3 113 8 273 10 355 9 356 16 600
20 740 15 514 18 626 19 767 l1 157 -30 31 c-71 75 -244 133 -440 146 -85 6
-240 5 -305 -1 -82 -8 -278 -62 -324 -89 -63 -37 -53 -22 -226 -351 -94 -179
-543 -1074 -647 -1290 -154 -318 -312 -656 -430 -915 -14 -30 -38 -82 -53
-115 -15 -33 -69 -152 -120 -265 -51 -113 -94 -207 -97 -210 -2 -2 -2 9 1 25
3 17 8 55 11 85 15 131 25 216 29 236 2 11 7 48 11 84 3 36 8 76 10 90 2 14 7
50 11 80 4 30 8 64 9 75 2 11 6 47 10 80 4 33 9 68 11 79 2 10 6 44 10 75 3
31 8 63 9 71 2 9 6 43 10 75 4 33 9 67 10 75 2 9 7 43 11 75 4 33 8 62 9 65 1
3 5 34 9 70 5 36 10 72 11 81 2 9 6 40 10 69 4 29 8 60 10 69 1 9 8 52 14 96
7 44 14 96 17 115 3 19 7 49 10 65 2 17 6 46 9 65 10 65 34 225 40 265 2 22 7
51 9 65 3 14 17 99 31 190 14 91 28 172 30 180 2 8 6 33 10 55 3 22 7 47 10
55 2 8 6 32 10 54 3 21 14 82 25 135 11 54 22 106 24 117 3 10 9 39 15 64 5
25 12 56 15 70 6 31 42 179 58 240 7 25 13 47 13 50 2 10 36 126 72 240 35
113 102 293 141 381 68 152 71 164 53 212 -43 112 -304 188 -626 182 -232 -5
-435 -58 -516 -135 -14 -13 -135 -211 -396 -645 -74 -123 -348 -587 -376 -635
-11 -19 -30 -51 -42 -70 -25 -40 -198 -339 -240 -415 -15 -27 -36 -62 -46 -77
-11 -14 -19 -28 -19 -31 0 -3 -38 -71 -85 -152 -47 -80 -96 -165 -109 -188
-13 -23 -41 -73 -63 -112 -22 -38 -51 -90 -65 -115 -14 -25 -92 -166 -175
-315 -83 -148 -167 -301 -188 -340 -21 -38 -60 -108 -85 -155 -26 -47 -71
-130 -100 -185 -29 -55 -54 -102 -57 -105 -3 -3 -2 33 2 80 3 47 8 108 10 136
2 28 7 94 10 145 3 52 7 128 10 169 11 171 19 350 30 720 6 173 6 980 1 1130
-6 153 -16 287 -26 350 -5 30 -12 75 -15 99 -18 127 -83 330 -138 431 -184
337 -593 523 -1171 533 -48 1 -88 1 -89 1z"/>
</g>
</svg>
